<?xml version="1.0" encoding="UTF-8"?>
<svg version="1.1" xmlns="http://www.w3.org/2000/svg" width="4167" height="1069">
<path d="M0 0 C1.44983276 0.00031723 1.44983276 0.00031723 2.92895508 0.00064087 C18.50495634 0.03457306 33.37006655 1.0037899 48.625 4.375 C49.49302246 4.55691895 50.36104492 4.73883789 51.25537109 4.92626953 C88.40358501 12.82759083 122.94108438 29.85447455 152.625 53.375 C153.66398437 54.18839844 154.70296875 55.00179687 155.7734375 55.83984375 C171.35021295 68.51349267 185.86810313 83.08104561 197.625 99.375 C198.44076618 100.45199467 199.25849877 101.52750253 200.078125 102.6015625 C239.28902876 154.75429984 253.90927173 225.3086393 245.625 289.375 C240.3301778 323.87333208 228.3021223 357.98006958 207.625 386.375 C206.90699219 387.365 206.18898438 388.355 205.44921875 389.375 C203.21129558 392.40527939 200.9327629 395.39762713 198.625 398.375 C197.95082031 399.24511719 197.27664063 400.11523438 196.58203125 401.01171875 C183.05105471 417.99525215 167.53430505 432.93926956 150.29052734 446.09912109 C148.76370452 447.26874526 147.25027796 448.45580312 145.73828125 449.64453125 C124.06850567 466.41820691 99.56794682 479.61102988 73.625 488.375 C72.79935547 488.65569336 71.97371094 488.93638672 71.12304688 489.22558594 C8.77784184 510.04819769 -58.00817382 498.85101268 -116.375 471.375 C-119.345 470.055 -122.315 468.735 -125.375 467.375 C-125.375 554.495 -125.375 641.615 -125.375 731.375 C-142.74559392 727.90088122 -158.59704827 722.37975535 -174.75 715.25 C-176.53647053 714.47012386 -178.32334646 713.69117582 -180.1105957 712.91308594 C-182.92183091 711.68831033 -185.73235821 710.46203435 -188.54078674 709.23083496 C-194.63860476 706.55841585 -200.75214335 703.92610326 -206.8795166 701.32217407 C-211.08939996 699.532753 -215.29493492 697.73324556 -219.50006104 695.93267822 C-221.52697483 695.06717492 -223.5555632 694.20558191 -225.58587646 693.3480835 C-228.43096885 692.14492736 -231.26876107 690.92589405 -234.10546875 689.703125 C-234.94221634 689.35373871 -235.77896393 689.00435242 -236.6410675 688.64437866 C-241.89281505 686.35703932 -246.51066945 683.68502165 -250.375 679.375 C-251.56096602 675.81710195 -251.5016219 672.99593418 -251.50363445 669.2380743 C-251.50538749 668.5028946 -251.50714053 667.76771491 -251.50894669 667.01025704 C-251.51362794 664.52715949 -251.51113569 662.04411996 -251.50871277 659.5610199 C-251.51057973 657.77029769 -251.51287998 655.9795759 -251.51557809 654.18885475 C-251.52171787 649.25193481 -251.52155991 644.31503175 -251.52038372 639.37810886 C-251.52018023 634.05859353 -251.52569391 628.73908371 -251.53044128 623.41957092 C-251.53876318 612.9857589 -251.54149693 602.55195253 -251.54205366 592.11813747 C-251.54252863 583.62777445 -251.54458246 575.13741329 -251.54775429 566.64705086 C-251.55656944 542.55864414 -251.56117298 518.47024189 -251.56042381 494.38183355 C-251.56038386 493.0820565 -251.5603439 491.78227946 -251.56030273 490.44311523 C-251.56026185 489.14174254 -251.56022097 487.84036985 -251.56017885 486.49956162 C-251.5597734 465.46229917 -251.56931528 444.42505472 -251.5834411 423.38779747 C-251.59784123 401.77043844 -251.60470911 380.15308816 -251.60384732 358.53572422 C-251.60351633 346.40650841 -251.60621953 334.27731138 -251.61702538 322.1480999 C-251.62617888 311.80710083 -251.62826657 301.46612905 -251.62151595 291.12512767 C-251.61827343 285.85819869 -251.61811058 280.5913219 -251.6268692 275.32439804 C-251.71186079 220.79456106 -251.71186079 220.79456106 -247.125 199 C-246.8007605 197.39970947 -246.8007605 197.39970947 -246.4699707 195.76708984 C-237.8792057 154.78255605 -218.80046231 116.45766455 -190.4296875 85.61328125 C-188.49397397 83.50460473 -186.61680024 81.35713672 -184.75 79.1875 C-179.09796013 72.71688884 -172.95244168 66.89460472 -166.375 61.375 C-165.6334668 60.74682373 -165.6334668 60.74682373 -164.87695312 60.10595703 C-118.9861624 21.45892668 -59.91703682 -0.12134934 0 0 Z M-88.375 161.375 C-89.12523437 162.06078125 -89.87546875 162.7465625 -90.6484375 163.453125 C-111.83121699 183.52102136 -124.65026964 213.93105982 -125.61328125 242.921875 C-125.85649178 256.57908158 -124.91004008 269.16945828 -121.375 282.375 C-121.20371582 283.03612793 -121.03243164 283.69725586 -120.85595703 284.37841797 C-116.38730721 301.07253819 -107.52547724 316.2959811 -96.375 329.375 C-95.59640625 330.31601562 -94.8178125 331.25703125 -94.015625 332.2265625 C-72.94552685 356.67063061 -42.07599176 370.5502145 -10.23046875 373.12109375 C23.82698008 375.24754759 55.26250034 363.23714978 80.75 341 C104.43733708 319.05326597 119.90774449 289.30238469 121.55517578 256.71435547 C122.51862645 224.43538944 112.92602776 193.93723162 91.625 169.375 C90.93921875 168.55644531 90.2534375 167.73789062 89.546875 166.89453125 C72.44242986 147.05214436 48.87282342 134.45450422 23.625 128.375 C22.62082031 128.12878906 21.61664062 127.88257813 20.58203125 127.62890625 C-19.49637516 119.78630311 -59.29819098 133.90830744 -88.375 161.375 Z " fill="#FFFFFF" transform="translate(536.375,284.625)"/>
<path d="M0 0 C80.44240606 -1.87906006 161.18334783 17.23999277 321.48242188 111.06201172 C322.51315993 111.91939838 323.54443748 112.77613677 324.57617188 113.63232422 C336.44887809 123.52683958 347.65398979 134.03827725 358.48242188 145.06201172 C354.02362154 150.39223226 349.32741073 155.38129274 344.42919922 160.30810547 C343.25246391 161.49710701 343.25246391 161.49710701 342.05195618 162.71012878 C339.47711757 165.30961302 336.89829887 167.90509038 334.31835938 170.49951172 C333.43521687 171.38797791 332.55207436 172.27644409 331.64216995 173.1918335 C327.93463485 176.92053548 324.2260866 180.64822036 320.51361656 184.37200928 C315.20595028 189.6959738 309.90701377 195.02830646 304.61961973 200.37240696 C300.44211115 204.59318333 296.25104146 208.80031703 292.05504227 213.00271606 C290.27334213 214.79115393 288.49591934 216.58386333 286.72282028 218.38082886 C284.25233238 220.88269814 281.76679441 223.36858427 279.27685547 225.85107422 C278.54325302 226.601082 277.80965057 227.35108978 277.05381775 228.12382507 C276.03625648 229.12890862 276.03625648 229.12890862 274.99813843 230.15429688 C274.11937577 231.03802475 274.11937577 231.03802475 273.22286034 231.93960571 C271.48242188 233.06201172 271.48242188 233.06201172 269.41332436 232.86679077 C266.52419588 231.6626336 264.67659864 229.71565906 262.41992188 227.56201172 C261.43226688 226.63807109 260.4426359 225.71623875 259.45117188 224.79638672 C258.95230469 224.33296875 258.4534375 223.86955078 257.93945312 223.39208984 C254.46315546 220.21868675 250.78837634 217.28745243 247.10546875 214.359375 C245.97418194 213.4550943 244.84826608 212.54407079 243.7265625 211.62792969 C208.12602808 182.56645716 167.08216987 158.74667492 123.48242188 144.06201172 C122.5480127 143.74683594 121.61360352 143.43166016 120.65087891 143.10693359 C90.11536576 132.97952435 57.70421814 126.78929466 25.48242188 126.06201172 C24.73041504 126.04154785 23.9784082 126.02108398 23.20361328 126 C-48.88250214 124.2403833 -124.5943527 144.96446795 -186.51757812 182.06201172 C-187.30197266 182.53171387 -188.08636719 183.00141602 -188.89453125 183.48535156 C-205.77063983 193.6906981 -221.70436899 205.03987339 -236.51757812 218.06201172 C-237.58298828 218.97853516 -237.58298828 218.97853516 -238.66992188 219.91357422 C-249.9563634 229.65361169 -260.81870433 239.72764156 -270.51757812 251.06201172 C-271.319375 251.97466797 -272.12117187 252.88732422 -272.94726562 253.82763672 C-293.62993935 277.55997298 -309.99035518 304.72019244 -323.51757812 333.06201172 C-323.87174805 333.80080566 -324.22591797 334.53959961 -324.59082031 335.30078125 C-331.20515474 349.2154027 -336.54040843 363.48988285 -341.51757812 378.06201172 C-341.79698242 378.86896484 -342.07638672 379.67591797 -342.36425781 380.50732422 C-356.20994472 420.7984486 -361.60514368 461.7791773 -362.12280273 504.24462891 C-362.16022659 506.86003363 -362.19792052 509.47543449 -362.23586178 512.09083176 C-362.64200494 541.12827723 -362.73627094 570.16850231 -362.81466115 599.20832755 C-362.83612137 607.10054877 -362.86240732 614.9927523 -362.88882338 622.88495824 C-362.93576298 636.94412994 -362.97921109 651.00330996 -363.02026367 665.0625 C-363.0600041 678.66960284 -363.10151336 692.2766985 -363.14526367 705.88378906 C-363.14798794 706.73126738 -363.15071222 707.57874569 -363.15351904 708.45190516 C-363.16720476 712.70606378 -363.18092379 716.96022229 -363.19465935 721.21438074 C-363.30745849 756.16357589 -363.41450819 791.11278656 -363.51757812 826.06201172 C-364.63047762 825.12389433 -365.74112148 824.18310071 -366.85083008 823.24121094 C-367.46956497 822.71759979 -368.08829987 822.19398865 -368.7257843 821.6545105 C-378.3660921 813.08646087 -385.95822226 801.44547476 -393.51757812 791.06201172 C-394.01402832 790.38122559 -394.51047852 789.70043945 -395.02197266 788.99902344 C-407.77128547 771.43394935 -418.98347048 753.02708873 -429.51757812 734.06201172 C-429.93716797 733.31612793 -430.35675781 732.57024414 -430.7890625 731.80175781 C-444.37874521 707.53837504 -454.79572769 681.42043896 -463.51757812 655.06201172 C-464.05439209 653.44335205 -464.05439209 653.44335205 -464.60205078 651.79199219 C-476.80813228 614.55529123 -484.27287335 576.09363911 -487.51757812 537.06201172 C-487.61256592 535.98145508 -487.70755371 534.90089844 -487.80541992 533.78759766 C-488.74375936 521.8068797 -488.71809556 509.82287759 -488.70507812 497.81201172 C-488.70414154 496.69752655 -488.70320496 495.58304138 -488.70223999 494.43478394 C-488.56115971 416.99838704 -470.0383603 342.2977055 -435.51757812 273.06201172 C-435.0627002 272.14822754 -434.60782227 271.23444336 -434.13916016 270.29296875 C-424.12233687 250.32153847 -412.55855368 231.20388546 -399.51757812 213.06201172 C-398.7216626 211.94947021 -398.7216626 211.94947021 -397.90966797 210.81445312 C-387.35580841 196.11454317 -376.22799974 181.90988898 -363.89648438 168.65185547 C-362.63704231 167.28073874 -361.38302658 165.90349794 -360.17822266 164.48413086 C-354.53043396 157.84421099 -348.36371071 151.72206122 -342.20361328 145.56274414 C-340.2806163 143.6375647 -338.36577238 141.70452141 -336.45117188 139.77099609 C-330.17022851 133.46205582 -323.86777082 127.43538825 -316.85693359 121.93383789 C-314.4300254 119.99195675 -312.16125319 117.93550182 -309.89257812 115.81201172 C-302.83021164 109.39572923 -295.16401847 103.75518661 -287.51757812 98.06201172 C-286.80037598 97.52527832 -286.08317383 96.98854492 -285.34423828 96.43554688 C-261.96249856 78.99876709 -236.89354374 63.68662214 -210.58886719 51.06298828 C-208.3346819 49.97362481 -206.09444693 48.85805726 -203.85351562 47.74169922 C-140.65706008 16.56980655 -70.17296829 1.72846528 0 0 Z " fill="#FFFFFF" transform="translate(525.517578125,35.93798828125)"/>
<path d="M0 0 C3.48031539 1.49180533 5.71189749 3.47427555 8.36621094 6.1550293 C9.64839508 7.44228157 9.64839508 7.44228157 10.95648193 8.75553894 C11.87318665 9.68570328 12.78989136 10.61586761 13.734375 11.57421875 C14.69546983 12.54159274 15.65708747 13.50844756 16.61920166 14.47480774 C19.15210378 17.0210013 21.67938891 19.57269121 24.20507812 22.1260376 C28.23139665 26.19546343 32.26429214 30.2583395 36.30072784 34.31772804 C37.69886256 35.72595009 39.09334653 37.13779378 40.48773193 38.54972839 C44.88381164 42.97890757 49.33431271 47.24227077 54.07012939 51.30513 C57.59175884 54.39793014 60.89558616 57.71256748 64.21875 61.015625 C64.96209595 61.75327087 65.70544189 62.49091675 66.47131348 63.25091553 C68.02554665 64.79577599 69.57838833 66.34203755 71.12988281 67.88964844 C73.51443768 70.26437819 75.90944582 72.62824338 78.3046875 74.9921875 C79.81836288 76.4993429 81.331407 78.00713263 82.84375 79.515625 C83.56236206 80.22189026 84.28097412 80.92815552 85.0213623 81.65582275 C85.67624634 82.31370789 86.33113037 82.97159302 87.00585938 83.64941406 C87.58573608 84.22564514 88.16561279 84.80187622 88.76306152 85.39556885 C90 87 90 87 90 90 C88.49609375 91.578125 88.49609375 91.578125 86.4375 93.25 C83.71483231 95.52523629 81.1420213 97.81324233 78.6875 100.375 C74.9896227 104.14011144 70.9251707 107.37981173 66.81640625 110.68359375 C64.17039649 112.85985421 61.64331697 115.11573459 59.125 117.4375 C53.95967075 122.12590527 48.50781598 126.38166536 42.92675781 130.55761719 C41.57720785 131.56789863 40.2304293 132.58188787 38.88574219 133.59863281 C22.2888072 146.13870023 5.01834073 157.60177093 -13 168 C-13.66080566 168.38188477 -14.32161133 168.76376953 -15.00244141 169.15722656 C-83.0574132 208.24209649 -158.53298545 228.62565006 -261 234 C-261 192.42 -261 150.84 -261 108 C-245.16 107.01 -245.16 107.01 -229 106 C-160.6926508 98.12919433 -96.42311323 76.34687373 -41 35 C-40.45682129 34.59571777 -39.91364258 34.19143555 -39.35400391 33.77490234 C-25.55377499 23.45234748 -12.07441534 12.31752437 0 0 Z " fill="#FFFFFF" transform="translate(795,798)"/>
<path d="M0 0 C110.73883162 0 110.73883162 0 140 26 C140.71027344 26.62648438 141.42054688 27.25296875 142.15234375 27.8984375 C161.21034478 45.78654144 168.91382949 71.29921833 170.1875 96.74609375 C170.62103789 122.35192537 164.79224058 148.7064393 147 168 C146.18917969 168.90234375 145.37835937 169.8046875 144.54296875 170.734375 C127.1459343 189.17574094 104.65560396 196.91804951 80 200 C53.6 200 27.2 200 0 200 C0 134 0 68 0 0 Z M40 37 C40 78.91 40 120.82 40 164 C78.00679937 165.03522448 78.00679937 165.03522448 108.82421875 147.2421875 C109.54222656 146.50226563 110.26023437 145.76234375 111 145 C111.64582031 144.36320312 112.29164063 143.72640625 112.95703125 143.0703125 C124.79533392 130.63880512 128.41436513 113.45745141 128.203125 96.8046875 C127.27552345 79.42999684 120.83024404 63.93062759 108 52 C107.21753906 51.27167969 106.43507813 50.54335938 105.62890625 49.79296875 C86.62477 33.40380165 64.86293276 37 40 37 Z " fill="#FFFFFF" transform="translate(3694,434)"/>
<path d="M0 0 C108.89356436 0 108.89356436 0 127.64453125 17.6171875 C139.72673845 29.8396525 145.11647294 44.96449393 146 62 C146.04125 62.76441406 146.0825 63.52882813 146.125 64.31640625 C146.60051396 82.35621709 142.04375357 99.77231749 129.74609375 113.34765625 C123.12366293 119.61452031 115.35896336 123.55153033 107 127 C108.62320693 131.87911324 111.38917059 135.70661566 114.3125 139.875 C115.48405944 141.56572308 116.65455274 143.25718521 117.82421875 144.94921875 C118.4795459 145.89587402 119.13487305 146.8425293 119.81005859 147.81787109 C124.12054526 154.08129173 128.36761441 160.38792094 132.625 166.6875 C139.66289118 177.11353641 139.66289118 177.11353641 146.79296875 187.4765625 C147.31745605 188.23106689 147.84194336 188.98557129 148.38232422 189.76293945 C149.30287333 191.0821627 150.22737334 192.39864234 151.15673828 193.71166992 C154 197.78283798 154 197.78283798 154 200 C112.01760515 204.83509251 112.01760515 204.83509251 102.23242188 197.71777344 C96.45958858 192.33826601 93.26015848 184.76673927 90.13336182 177.65678406 C86.39437703 169.23350619 81.20187056 161.81609566 76.02810669 154.22183228 C73.49582245 150.48561865 71.02943007 146.70668979 68.55859375 142.9296875 C66.38083461 139.61411465 64.20040732 136.30061098 62 133 C54.74 132.67 47.48 132.34 40 132 C40 154.44 40 176.88 40 200 C26.8 200 13.6 200 0 200 C0 134 0 68 0 0 Z M40 36 C40 55.8 40 75.6 40 96 C45.89875 96.061875 51.7975 96.12375 57.875 96.1875 C60.63593018 96.22846802 60.63593018 96.22846802 63.45263672 96.27026367 C75.8807147 96.37903319 86.16099196 95.35280989 96 87 C102.73001512 79.9097057 104.50564817 72.71990867 104.3125 63.0625 C103.51530943 55.25003242 100.03612129 48.08851515 94 43 C82.34345848 35.29725903 69.28316155 35.72384715 55.8125 35.875 C47.9853125 35.936875 47.9853125 35.936875 40 36 Z " fill="#FFFFFF" transform="translate(3229,434)"/>
<path d="M0 0 C42.24 0 84.48 0 128 0 C128 12.21 128 24.42 128 37 C98.63 37 69.26 37 39 37 C39 52.18 39 67.36 39 83 C62.43 83 85.86 83 110 83 C110 94.88 110 106.76 110 119 C86.57 119 63.14 119 39 119 C39 133.85 39 148.7 39 164 C70.35 164 101.7 164 134 164 C134 175.88 134 187.76 134 200 C89.78 200 45.56 200 0 200 C0 134 0 68 0 0 Z " fill="#FFFFFF" transform="translate(3996,434)"/>
<path d="M0 0 C106.92030478 0 106.92030478 0 125.64453125 17.62109375 C137.95133445 30.0503527 143.2943202 45.88502957 143.46850586 63.25 C143.45827393 64.425625 143.44804199 65.60125 143.4375 66.8125 C143.42920166 68.04355469 143.42090332 69.27460938 143.41235352 70.54296875 C143.1039621 87.15440128 138.94977947 100.83034875 127.4375 113.25 C108.65233031 130.95359931 84.61280128 132.3393985 60.1875 132.125 C50.1946875 132.063125 50.1946875 132.063125 40 132 C40 154.44 40 176.88 40 200 C26.8 200 13.6 200 0 200 C0 134 0 68 0 0 Z M40 36 C40 55.8 40 75.6 40 96 C47.79625 96.0928125 47.79625 96.0928125 55.75 96.1875 C57.36358398 96.21481201 58.97716797 96.24212402 60.63964844 96.27026367 C72.76464719 96.3396133 84.57966665 95.54358945 94 87 C99.67567553 80.6285965 101.93614478 73.92941304 102.02734375 65.4609375 C101.49431208 56.63174629 98.46250975 49.50064452 91.90625 43.5 C81.20669737 35.0806799 67.77421367 35.71955573 54.8125 35.875 C49.924375 35.91625 45.03625 35.9575 40 36 Z " fill="#FFFFFF" transform="translate(2957,434)"/>
<path d="M0 0 C8.58 0 17.16 0 26 0 C30.36586744 5.61325814 34.62693121 11.18078486 38.6875 17 C39.73301332 18.48962517 40.77858798 19.97920728 41.82421875 21.46875 C42.35063965 22.22027344 42.87706055 22.97179687 43.41943359 23.74609375 C45.93752385 27.33692001 48.46912005 30.91818252 51 34.5 C53.99165896 38.73591269 56.98178847 42.97286635 59.96484375 47.21484375 C65.07231989 54.47234973 70.22035849 61.69586324 75.4375 68.875 C79.94092371 75.07537574 84.32108331 81.34713637 88.625 87.6875 C92.88661736 93.96527788 97.24925147 100.14095555 101.77050781 106.23388672 C105.5646398 111.36319312 109.22905227 116.57707506 112.875 121.8125 C120.42644182 132.65284283 128.07274259 143.43032345 136 154 C136.33 103.18 136.66 52.36 137 0 C145.25 0 153.5 0 162 0 C162 65.67 162 131.34 162 199 C153.42 199 144.84 199 136 199 C128.23759616 191.16766459 128.23759616 191.16766459 126.4375 187.5546875 C124.11937068 183.15508675 121.43568399 179.17649508 118.5625 175.125 C117.65413853 173.79440774 116.74791409 172.46235426 115.84375 171.12890625 C112.82623385 166.71779633 109.70209873 162.38722989 106.5625 158.0625 C99.79280234 148.73542763 93.14855826 139.32352676 86.52050781 129.89550781 C80.93731296 121.95684513 75.32310459 114.04419888 69.625 106.1875 C65.0187713 99.83572398 60.4865817 93.43681047 56 87 C50.99619574 79.82186581 45.93070981 72.69335709 40.7890625 65.61328125 C35.81915769 58.76969575 30.91689645 51.88365502 26 45 C25.67 95.82 25.34 146.64 25 199 C16.75 199 8.5 199 0 199 C0 133.33 0 67.66 0 0 Z " fill="#FFFFFF" transform="translate(1590,435)"/>
<path d="M0 0 C104.75618132 0 104.75618132 0 121.4375 15.8125 C134.29230494 29.60485149 138.61277136 46.78225023 138.2421875 65.33203125 C137.17315457 81.52270735 132.59265805 96.89274351 120 108 C112.93046143 113.3785224 105.25544272 116.84211575 97 120 C95.33269284 120.66506319 93.66593118 121.33149754 92 122 C105.93142056 143.20640258 105.93142056 143.20640258 120.375 164.0625 C125.28209898 170.90892067 130.00298692 177.87504027 134.6875 184.875 C135.39632324 185.92953369 136.10514648 186.98406738 136.83544922 188.07055664 C137.49174316 189.05531982 138.14803711 190.04008301 138.82421875 191.0546875 C139.41291748 191.93624512 140.00161621 192.81780273 140.6081543 193.72607422 C142 196 142 196 143 199 C133.19992878 201.05565742 121.56863963 203.04976344 112 199 C107.00753271 195.51226268 103.89557341 190.2612269 100.8125 185.125 C100.38171143 184.41401154 99.95092285 183.70302307 99.50708008 182.9704895 C96.18252397 177.39806962 93.08462728 171.70761501 90 166 C86.31918438 159.19072151 82.53846532 152.47027631 78.5352478 145.84466553 C76.4542398 142.27907025 74.60794472 138.60800322 72.80769348 134.89334106 C69.87171276 130.70484793 65.77124972 127.45559446 62 124 C50.12 123.67 38.24 123.34 26 123 C26 148.08 26 173.16 26 199 C17.42 199 8.84 199 0 199 C0 133.33 0 67.66 0 0 Z M26 23 C26 48.41 26 73.82 26 100 C37.7253125 100.0928125 37.7253125 100.0928125 49.6875 100.1875 C52.12729248 100.21481201 54.56708496 100.24212402 57.08081055 100.27026367 C73.60251856 100.37812748 89.31501196 99.95880788 102.109375 88.171875 C109.20415965 80.02166784 112.32902045 69.67911522 111.8046875 59.03515625 C111.16094285 51.8597382 110.26468386 44.99589216 106 39 C105.36771484 38.08347656 105.36771484 38.08347656 104.72265625 37.1484375 C97.93156143 28.30684591 86.74846362 24.41089618 76 23 C72.15846023 22.86440926 68.32007424 22.88359707 64.4765625 22.90234375 C63.49969482 22.90335083 62.52282715 22.90435791 61.51635742 22.90539551 C57.88589292 22.91060643 54.25544521 22.92456764 50.625 22.9375 C38.435625 22.9684375 38.435625 22.9684375 26 23 Z " fill="#FFFFFF" transform="translate(2429,435)"/>
<path d="M0 0 C40.59 0 81.18 0 123 0 C123 7.59 123 15.18 123 23 C90.99 23 58.98 23 26 23 C26 44.45 26 65.9 26 88 C52.4 88 78.8 88 106 88 C106 95.92 106 103.84 106 112 C79.6 112 53.2 112 26 112 C26 133.12 26 154.24 26 176 C59.99 176 93.98 176 129 176 C129 183.59 129 191.18 129 199 C86.43 199 43.86 199 0 199 C0 133.33 0 67.66 0 0 Z " fill="#FFFFFF" transform="translate(1335,435)"/>
<path d="M0 0 C8.58 0 17.16 0 26 0 C26.0093457 3.79371094 26.01869141 7.58742188 26.02832031 11.49609375 C26.06219529 24.07695948 26.11760465 36.65765472 26.18390274 49.23838806 C26.22355209 56.86075143 26.25601563 64.48301367 26.27099609 72.10546875 C26.28408637 78.75655111 26.31123636 85.40740962 26.35461307 92.05836582 C26.37706402 95.57338964 26.39292068 99.0881391 26.39188385 102.60324097 C26.39241655 125.5962512 27.2424906 146.47676961 44 164 C55.00830645 173.70884364 68.64293255 176.69283435 83 176 C95.58524156 175.04042146 107.21630565 169.25893866 115.74609375 159.984375 C118.32936282 156.56389394 120.45449214 153.1065813 122.4375 149.3125 C122.7557373 148.71445557 123.07397461 148.11641113 123.40185547 147.50024414 C130.62629411 132.46586443 129.47653816 115.25887881 129.50611091 99.03602529 C129.51559978 95.54465633 129.54181003 92.05341009 129.56611633 88.56211853 C129.60949973 81.97527296 129.63821841 75.38845158 129.66143972 68.80150741 C129.688644 61.29216173 129.73254492 53.78294123 129.77772844 46.27368557 C129.87017057 30.8491745 129.93983176 15.42467587 130 0 C138.25 0 146.5 0 155 0 C155.0679336 17.08199207 155.12310719 34.16386737 155.15543652 51.24595737 C155.17085199 59.17891365 155.19183866 67.11177952 155.22631836 75.04467773 C155.25638482 81.96554901 155.27561357 88.88635476 155.28226548 95.80728954 C155.28614881 99.46593945 155.29516152 103.12440203 155.31719017 106.78299141 C155.42933008 126.18047704 155.0238574 143.01549204 147 161 C146.59265625 161.92296875 146.1853125 162.8459375 145.765625 163.796875 C137.79684255 180.01569105 123.60665233 190.61101919 107 197 C85.30259064 204.12363645 59.57959855 203.11369024 39 193 C20.40433604 181.96285072 8.71070389 166.52224166 3.06640625 145.52734375 C0.29798555 133.56617681 -0.15374598 121.56417722 -0.11352539 109.32495117 C-0.11367142 108.13311722 -0.11381744 106.94128326 -0.1139679 105.71333313 C-0.11327823 101.82319233 -0.10553066 97.93310105 -0.09765625 94.04296875 C-0.0952283 91.32627896 -0.09431712 88.60958921 -0.09336853 85.89289856 C-0.09027866 79.50428265 -0.08209735 73.11568416 -0.07201904 66.72707587 C-0.06078449 59.44517415 -0.05532907 52.16327153 -0.05032361 44.88136327 C-0.03991239 29.9208976 -0.02159659 14.9604545 0 0 Z " fill="#FFFFFF" transform="translate(2139,435)"/>
<path d="M0 0 C1.918125 0.00737183 1.918125 0.00737183 3.875 0.01489258 C31.15479228 0.35380437 53.47892742 11.12245876 72.75 30.125 C73.32298828 30.68848145 73.89597656 31.25196289 74.48632812 31.83251953 C76.92708336 34.29324458 78.57686345 35.98059034 79.6875 39.3125 C77.62571926 41.06335334 75.56310123 42.81320381 73.5 44.5625 C72.92185547 45.05363281 72.34371094 45.54476562 71.74804688 46.05078125 C68.43518589 48.85829056 65.0938788 51.61818908 61.6875 54.3125 C58.45945029 52.92905012 56.73314581 51.42534974 54.5625 48.6875 C42.97563126 35.14090716 26.11162353 26.68930597 8.36816406 25.10546875 C-13.20592878 23.87216005 -31.97513256 28.99448009 -48.53125 43.21875 C-63.80161877 57.54940377 -70.29290724 78.49343969 -71.29077148 98.92724609 C-71.90367007 121.76495218 -65.07516008 142.628717 -49.328125 159.4296875 C-34.39440791 173.85812845 -15.50880661 177.95000046 4.59790039 177.78564453 C23.85401055 177.24255735 40.44013482 169.27593898 53.6875 155.3125 C54.78902829 154.20570124 55.89326253 153.10158986 57 152 C57.886875 151.113125 58.77375 150.22625 59.6875 149.3125 C64.13601869 150.74958952 66.85866163 153.00841507 70.25 156.1875 C71.17941406 157.05117188 72.10882812 157.91484375 73.06640625 158.8046875 C75.30423909 160.94580327 77.51044657 163.10983418 79.6875 165.3125 C76.71071856 168.66728543 73.70373313 171.993177 70.6875 175.3125 C69.88119141 176.23869141 69.88119141 176.23869141 69.05859375 177.18359375 C54.67755847 192.84127446 31.90728822 201.62943626 11.0078125 203.21875 C9.85925781 203.26515625 9.85925781 203.26515625 8.6875 203.3125 C7.65367188 203.3640625 6.61984375 203.415625 5.5546875 203.46875 C-24.48081408 204.24720792 -51.01733425 194.94585588 -73 174.125 C-92.62757827 153.874324 -98.71453598 127.19781775 -98.61279297 99.77197266 C-98.18068311 73.77920226 -90.3900651 51.76388675 -74.3125 31.3125 C-73.52875 30.260625 -72.745 29.20875 -71.9375 28.125 C-61.73939561 17.19845958 -49.23846631 9.70026289 -35.1875 4.9375 C-34.48423584 4.69878174 -33.78097168 4.46006348 -33.05639648 4.21411133 C-22.18036056 0.76189696 -11.35947739 -0.05162039 0 0 Z " fill="#FFFFFF" transform="translate(1131.3125,432.6875)"/>
<path d="M0 0 C9.5688685 -1.77725693 19.60557135 -3.16011907 29 0 C36.32648289 6.07933948 40.08718362 15.58039206 44.06396484 24.04443359 C46.77988138 29.73306756 50.13670184 35.01299753 53.48721313 40.34301758 C55.27145399 43.19618252 57.01019491 46.07662994 58.75 48.95703125 C59.09480911 49.52664581 59.43961823 50.09626038 59.7948761 50.68313599 C66.27846996 61.40627383 72.637219 72.20490912 79 83 C82.01127837 80.35593646 83.86133808 77.11582215 85.8515625 73.69140625 C86.22287796 73.06139206 86.59419342 72.43137787 86.97676086 71.78227234 C87.77799837 70.42201505 88.57725059 69.0605868 89.37472534 67.69812012 C91.50459411 64.06004703 93.649521 60.43086485 95.79296875 56.80078125 C96.22914017 56.06129242 96.66531158 55.32180359 97.11470032 54.55990601 C99.92047963 49.80847199 102.75195855 45.07365267 105.61328125 40.35546875 C106.15721779 39.45662712 106.15721779 39.45662712 106.71214294 38.53962708 C108.48726491 35.61282904 110.27913779 32.69853108 112.10327148 29.80200195 C115.36353219 24.57823113 118.3175057 19.50985401 120.671875 13.8125 C125.3976554 2.99282901 125.3976554 2.99282901 130 0 C139.78849598 -2.34668104 150.11561178 -1.2237814 160 0 C158.76360314 3.27598741 157.38520645 6.20461269 155.5234375 9.16796875 C155.02610107 9.96485107 154.52876465 10.7617334 154.01635742 11.58276367 C153.47470947 12.44232666 152.93306152 13.30188965 152.375 14.1875 C151.19096456 16.08305751 150.00739159 17.97890395 148.82421875 19.875 C148.19950684 20.87402344 147.57479492 21.87304688 146.93115234 22.90234375 C143.65985692 28.14965049 140.42476585 33.41915634 137.1875 38.6875 C135.83077694 40.89325855 134.47400564 43.09898743 133.1171875 45.3046875 C131.74475634 47.53643661 130.37236061 49.7682075 129 52 C113.590999 77.05878752 113.590999 77.05878752 105.9375 89.4375 C105.43774658 90.24678955 104.93799316 91.0560791 104.4230957 91.88989258 C103.94187256 92.66743896 103.46064941 93.44498535 102.96484375 94.24609375 C102.52041428 94.98600052 102.0759848 95.72590729 101.61808777 96.48823547 C100 99 100 99 98.2109375 101.14828491 C91.18341262 110.18132607 92.01124486 119.63926384 92.09765625 130.54296875 C92.08825889 132.52266576 92.07579356 134.50235035 92.06040955 136.48200989 C92.02832905 141.65906817 92.03757314 146.83523609 92.05578613 152.0123291 C92.06698472 157.30844682 92.03860132 162.60434155 92.01367188 167.90039062 C91.97064523 178.26718176 91.97499218 188.63314953 92 199 C83.75 199 75.5 199 67 199 C67.04882324 195.11299316 67.04882324 195.11299316 67.09863281 191.14746094 C67.19821392 182.50619407 67.23024552 173.86557697 67.23059464 165.22376633 C67.23281808 159.99287631 67.25654062 154.76407129 67.33251953 149.53369141 C68.76239725 118.53279046 68.76239725 118.53279046 55.43041992 91.66717529 C53.4638972 89.37516436 51.98673022 86.87014687 50.4765625 84.26171875 C49.52729339 82.73619956 48.57680305 81.2114395 47.625 79.6875 C43.04182725 72.31650928 38.50435315 64.91941102 34 57.5 C29.53400291 50.14521899 25.03793209 42.81061343 20.5 35.5 C15.71486251 27.77962257 10.93712983 20.05478277 6.1875 12.3125 C5.57003906 11.31347656 4.95257812 10.31445312 4.31640625 9.28515625 C3.46949219 7.90070313 3.46949219 7.90070313 2.60546875 6.48828125 C1.84979614 5.25911987 1.84979614 5.25911987 1.07885742 4.00512695 C0 2 0 2 0 0 Z " fill="#FFFFFF" transform="translate(2671,435)"/>
<path d="M0 0 C13.53 0 27.06 0 41 0 C41 66 41 132 41 200 C27.47 200 13.94 200 0 200 C0 134 0 68 0 0 Z " fill="#FFFFFF" transform="translate(3511,434)"/>
<path d="M0 0 C47.85 0 95.7 0 145 0 C145 7.59 145 15.18 145 23 C125.2 23 105.4 23 85 23 C85 81.08 85 139.16 85 199 C76.75 199 68.5 199 60 199 C60 140.92 60 82.84 60 23 C40.2 23 20.4 23 0 23 C0 15.41 0 7.82 0 0 Z " fill="#FFFFFF" transform="translate(1875,435)"/>
</svg>
